<mxfile host="app.diagrams.net" modified="2023-10-23T07:40:39.407Z" agent="Mozilla/5.0 (Windows NT 6.3; Win64; x64) AppleWebKit/537.36 (KHTML, like Gecko) Chrome/116.0.5845.888 YaBrowser/23.9.2.888 Yowser/2.5 Safari/537.36" version="22.0.6" etag="kS_2qIiTMHGcwEH8b1-h" type="github">
  <diagram name="Страница — 1" id="KNaDqbuvscYC-7DEC-EF">
    <mxGraphModel>
      <root>
        <mxCell id="0" />
        <mxCell id="1" parent="0" />
        <mxCell id="2" value="ТелеграммБот" style="swimlane;fontStyle=1;align=center;verticalAlign=top;childLayout=stackLayout;horizontal=1;startSize=28.4;horizontalStack=0;resizeParent=1;resizeParentMax=0;resizeLast=0;collapsible=0;marginBottom=0;" vertex="1" parent="1">
          <mxGeometry x="8" y="231" width="283" height="150" as="geometry" />
        </mxCell>
        <mxCell id="3" value="-Токен: string" style="text;strokeColor=none;fillColor=none;align=left;verticalAlign=top;spacingLeft=4;spacingRight=4;overflow=hidden;rotatable=0;points=[[0,0.5],[1,0.5]];portConstraint=eastwest;" vertex="1" parent="2">
          <mxGeometry y="28" width="283" height="28" as="geometry" />
        </mxCell>
        <mxCell id="4" value="-URL: string" style="text;strokeColor=none;fillColor=none;align=left;verticalAlign=top;spacingLeft=4;spacingRight=4;overflow=hidden;rotatable=0;points=[[0,0.5],[1,0.5]];portConstraint=eastwest;" vertex="1" parent="2">
          <mxGeometry y="57" width="283" height="28" as="geometry" />
        </mxCell>
        <mxCell id="5" style="line;strokeWidth=1;fillColor=none;align=left;verticalAlign=middle;spacingTop=-1;spacingLeft=3;spacingRight=3;rotatable=0;labelPosition=right;points=[];portConstraint=eastwest;strokeColor=inherit;" vertex="1" parent="2">
          <mxGeometry y="85" width="283" height="8" as="geometry" />
        </mxCell>
        <mxCell id="6" value="+sendMessage(message: string): void" style="text;strokeColor=none;fillColor=none;align=left;verticalAlign=top;spacingLeft=4;spacingRight=4;overflow=hidden;rotatable=0;points=[[0,0.5],[1,0.5]];portConstraint=eastwest;" vertex="1" parent="2">
          <mxGeometry y="93" width="283" height="28" as="geometry" />
        </mxCell>
        <mxCell id="7" value="+receiveMessage(): string" style="text;strokeColor=none;fillColor=none;align=left;verticalAlign=top;spacingLeft=4;spacingRight=4;overflow=hidden;rotatable=0;points=[[0,0.5],[1,0.5]];portConstraint=eastwest;" vertex="1" parent="2">
          <mxGeometry y="122" width="283" height="28" as="geometry" />
        </mxCell>
        <mxCell id="8" value="Клиент" style="swimlane;fontStyle=1;align=center;verticalAlign=top;childLayout=stackLayout;horizontal=1;startSize=27.5;horizontalStack=0;resizeParent=1;resizeParentMax=0;resizeLast=0;collapsible=0;marginBottom=0;" vertex="1" parent="1">
          <mxGeometry x="125" y="431" width="225" height="173" as="geometry" />
        </mxCell>
        <mxCell id="9" value="-ID: number" style="text;strokeColor=none;fillColor=none;align=left;verticalAlign=top;spacingLeft=4;spacingRight=4;overflow=hidden;rotatable=0;points=[[0,0.5],[1,0.5]];portConstraint=eastwest;" vertex="1" parent="8">
          <mxGeometry y="28" width="225" height="28" as="geometry" />
        </mxCell>
        <mxCell id="10" value="-Имя: string" style="text;strokeColor=none;fillColor=none;align=left;verticalAlign=top;spacingLeft=4;spacingRight=4;overflow=hidden;rotatable=0;points=[[0,0.5],[1,0.5]];portConstraint=eastwest;" vertex="1" parent="8">
          <mxGeometry y="55" width="225" height="28" as="geometry" />
        </mxCell>
        <mxCell id="11" value="-Фамилия: string" style="text;strokeColor=none;fillColor=none;align=left;verticalAlign=top;spacingLeft=4;spacingRight=4;overflow=hidden;rotatable=0;points=[[0,0.5],[1,0.5]];portConstraint=eastwest;" vertex="1" parent="8">
          <mxGeometry y="83" width="225" height="28" as="geometry" />
        </mxCell>
        <mxCell id="12" style="line;strokeWidth=1;fillColor=none;align=left;verticalAlign=middle;spacingTop=-1;spacingLeft=3;spacingRight=3;rotatable=0;labelPosition=right;points=[];portConstraint=eastwest;strokeColor=inherit;" vertex="1" parent="8">
          <mxGeometry y="110" width="225" height="8" as="geometry" />
        </mxCell>
        <mxCell id="13" value="+ЗаписатьсяНаСеанс(): void" style="text;strokeColor=none;fillColor=none;align=left;verticalAlign=top;spacingLeft=4;spacingRight=4;overflow=hidden;rotatable=0;points=[[0,0.5],[1,0.5]];portConstraint=eastwest;" vertex="1" parent="8">
          <mxGeometry y="118" width="225" height="28" as="geometry" />
        </mxCell>
        <mxCell id="14" value="+ОтменитьЗапись(): void" style="text;strokeColor=none;fillColor=none;align=left;verticalAlign=top;spacingLeft=4;spacingRight=4;overflow=hidden;rotatable=0;points=[[0,0.5],[1,0.5]];portConstraint=eastwest;" vertex="1" parent="8">
          <mxGeometry y="146" width="225" height="28" as="geometry" />
        </mxCell>
        <mxCell id="15" value="Сотрудник" style="swimlane;fontStyle=1;align=center;verticalAlign=top;childLayout=stackLayout;horizontal=1;startSize=27.5;horizontalStack=0;resizeParent=1;resizeParentMax=0;resizeLast=0;collapsible=0;marginBottom=0;" vertex="1" parent="1">
          <mxGeometry x="400" y="431" width="374" height="173" as="geometry" />
        </mxCell>
        <mxCell id="16" value="-ID: number" style="text;strokeColor=none;fillColor=none;align=left;verticalAlign=top;spacingLeft=4;spacingRight=4;overflow=hidden;rotatable=0;points=[[0,0.5],[1,0.5]];portConstraint=eastwest;" vertex="1" parent="15">
          <mxGeometry y="28" width="374" height="28" as="geometry" />
        </mxCell>
        <mxCell id="17" value="-Имя: string" style="text;strokeColor=none;fillColor=none;align=left;verticalAlign=top;spacingLeft=4;spacingRight=4;overflow=hidden;rotatable=0;points=[[0,0.5],[1,0.5]];portConstraint=eastwest;" vertex="1" parent="15">
          <mxGeometry y="55" width="374" height="28" as="geometry" />
        </mxCell>
        <mxCell id="18" value="-Фамилия: string" style="text;strokeColor=none;fillColor=none;align=left;verticalAlign=top;spacingLeft=4;spacingRight=4;overflow=hidden;rotatable=0;points=[[0,0.5],[1,0.5]];portConstraint=eastwest;" vertex="1" parent="15">
          <mxGeometry y="83" width="374" height="28" as="geometry" />
        </mxCell>
        <mxCell id="19" style="line;strokeWidth=1;fillColor=none;align=left;verticalAlign=middle;spacingTop=-1;spacingLeft=3;spacingRight=3;rotatable=0;labelPosition=right;points=[];portConstraint=eastwest;strokeColor=inherit;" vertex="1" parent="15">
          <mxGeometry y="110" width="374" height="8" as="geometry" />
        </mxCell>
        <mxCell id="20" value="+ОтправитьСообщение(сообщение: string): void" style="text;strokeColor=none;fillColor=none;align=left;verticalAlign=top;spacingLeft=4;spacingRight=4;overflow=hidden;rotatable=0;points=[[0,0.5],[1,0.5]];portConstraint=eastwest;" vertex="1" parent="15">
          <mxGeometry y="118" width="374" height="28" as="geometry" />
        </mxCell>
        <mxCell id="21" value="+ПолучитьСообщение(): string" style="text;strokeColor=none;fillColor=none;align=left;verticalAlign=top;spacingLeft=4;spacingRight=4;overflow=hidden;rotatable=0;points=[[0,0.5],[1,0.5]];portConstraint=eastwest;" vertex="1" parent="15">
          <mxGeometry y="146" width="374" height="28" as="geometry" />
        </mxCell>
        <mxCell id="22" value="ПсихологическийЦентр" style="swimlane;fontStyle=1;align=center;verticalAlign=top;childLayout=stackLayout;horizontal=1;startSize=27.5;horizontalStack=0;resizeParent=1;resizeParentMax=0;resizeLast=0;collapsible=0;marginBottom=0;" vertex="1" parent="1">
          <mxGeometry x="174" y="8" width="456" height="173" as="geometry" />
        </mxCell>
        <mxCell id="23" value="-Название: string" style="text;strokeColor=none;fillColor=none;align=left;verticalAlign=top;spacingLeft=4;spacingRight=4;overflow=hidden;rotatable=0;points=[[0,0.5],[1,0.5]];portConstraint=eastwest;" vertex="1" parent="22">
          <mxGeometry y="28" width="456" height="28" as="geometry" />
        </mxCell>
        <mxCell id="24" value="-Адрес: string" style="text;strokeColor=none;fillColor=none;align=left;verticalAlign=top;spacingLeft=4;spacingRight=4;overflow=hidden;rotatable=0;points=[[0,0.5],[1,0.5]];portConstraint=eastwest;" vertex="1" parent="22">
          <mxGeometry y="55" width="456" height="28" as="geometry" />
        </mxCell>
        <mxCell id="25" style="line;strokeWidth=1;fillColor=none;align=left;verticalAlign=middle;spacingTop=-1;spacingLeft=3;spacingRight=3;rotatable=0;labelPosition=right;points=[];portConstraint=eastwest;strokeColor=inherit;" vertex="1" parent="22">
          <mxGeometry y="83" width="456" height="8" as="geometry" />
        </mxCell>
        <mxCell id="26" value="+создатьБот(): ТелеграммБот" style="text;strokeColor=none;fillColor=none;align=left;verticalAlign=top;spacingLeft=4;spacingRight=4;overflow=hidden;rotatable=0;points=[[0,0.5],[1,0.5]];portConstraint=eastwest;" vertex="1" parent="22">
          <mxGeometry y="91" width="456" height="28" as="geometry" />
        </mxCell>
        <mxCell id="27" value="+зарегистрироватьКлиента(client: Клиент): void" style="text;strokeColor=none;fillColor=none;align=left;verticalAlign=top;spacingLeft=4;spacingRight=4;overflow=hidden;rotatable=0;points=[[0,0.5],[1,0.5]];portConstraint=eastwest;" vertex="1" parent="22">
          <mxGeometry y="118" width="456" height="28" as="geometry" />
        </mxCell>
        <mxCell id="28" value="+зарегистрироватьСотрудника(employee: Сотрудник): void" style="text;strokeColor=none;fillColor=none;align=left;verticalAlign=top;spacingLeft=4;spacingRight=4;overflow=hidden;rotatable=0;points=[[0,0.5],[1,0.5]];portConstraint=eastwest;" vertex="1" parent="22">
          <mxGeometry y="146" width="456" height="28" as="geometry" />
        </mxCell>
        <mxCell id="29" value="" style="curved=1;startArrow=none;endArrow=open;endSize=12;exitX=0.49980675795053003;exitY=1;entryX=0.19656078724464376;entryY=0;" edge="1" parent="1" source="2" target="8">
          <mxGeometry relative="1" as="geometry">
            <Array as="points">
              <mxPoint x="149" y="406" />
            </Array>
          </mxGeometry>
        </mxCell>
        <mxCell id="30" value="1" style="edgeLabel;resizable=0;align=left;verticalAlign=top;" vertex="1" parent="29">
          <mxGeometry x="-1" relative="1" as="geometry" />
        </mxCell>
        <mxCell id="31" value="1" style="edgeLabel;resizable=0;align=right;verticalAlign=top;" vertex="1" parent="29">
          <mxGeometry x="1" relative="1" as="geometry" />
        </mxCell>
        <mxCell id="32" value="" style="curved=1;startArrow=none;endArrow=open;endSize=12;exitX=0.9996135159010601;exitY=0.8455878142358128;entryX=0.1583389037433155;entryY=0;" edge="1" parent="1" source="2" target="15">
          <mxGeometry relative="1" as="geometry">
            <Array as="points">
              <mxPoint x="422" y="406" />
            </Array>
          </mxGeometry>
        </mxCell>
        <mxCell id="33" value="1" style="edgeLabel;resizable=0;align=left;verticalAlign=top;" vertex="1" parent="32">
          <mxGeometry x="-1" relative="1" as="geometry" />
        </mxCell>
        <mxCell id="34" value="1" style="edgeLabel;resizable=0;align=right;verticalAlign=top;" vertex="1" parent="32">
          <mxGeometry x="1" relative="1" as="geometry" />
        </mxCell>
        <mxCell id="35" value="" style="curved=1;startArrow=none;endArrow=open;endSize=12;exitX=0.07048298164483519;exitY=1;entryX=0.49980675795053003;entryY=0;" edge="1" parent="1" source="22" target="2">
          <mxGeometry relative="1" as="geometry">
            <Array as="points">
              <mxPoint x="149" y="206" />
            </Array>
          </mxGeometry>
        </mxCell>
        <mxCell id="36" value="1" style="edgeLabel;resizable=0;align=left;verticalAlign=top;" vertex="1" parent="35">
          <mxGeometry x="-1" relative="1" as="geometry" />
        </mxCell>
        <mxCell id="37" value="1" style="edgeLabel;resizable=0;align=right;verticalAlign=top;" vertex="1" parent="35">
          <mxGeometry x="1" relative="1" as="geometry" />
        </mxCell>
        <mxCell id="38" value="" style="curved=1;startArrow=none;endArrow=open;endSize=12;exitX=0.5006681743421053;exitY=1;entryX=1.0005902777777778;entryY=0.05973025048169546;" edge="1" parent="1" source="22" target="8">
          <mxGeometry relative="1" as="geometry">
            <Array as="points">
              <mxPoint x="402" y="406" />
            </Array>
          </mxGeometry>
        </mxCell>
        <mxCell id="39" value="0..*" style="edgeLabel;resizable=0;align=left;verticalAlign=top;" vertex="1" parent="38">
          <mxGeometry x="-1" relative="1" as="geometry" />
        </mxCell>
        <mxCell id="40" value="1" style="edgeLabel;resizable=0;align=right;verticalAlign=top;" vertex="1" parent="38">
          <mxGeometry x="1" relative="1" as="geometry" />
        </mxCell>
        <mxCell id="41" value="" style="curved=1;startArrow=none;endArrow=open;endSize=12;exitX=0.831800189366002;exitY=1;entryX=0.5205862400631878;entryY=0;" edge="1" parent="1" source="22" target="15">
          <mxGeometry relative="1" as="geometry">
            <Array as="points">
              <mxPoint x="597" y="206" />
              <mxPoint x="597" y="406" />
            </Array>
          </mxGeometry>
        </mxCell>
        <mxCell id="42" value="0..*" style="edgeLabel;resizable=0;align=left;verticalAlign=top;" vertex="1" parent="41">
          <mxGeometry x="-1" relative="1" as="geometry" />
        </mxCell>
        <mxCell id="43" value="1" style="edgeLabel;resizable=0;align=right;verticalAlign=top;" vertex="1" parent="41">
          <mxGeometry x="1" relative="1" as="geometry" />
        </mxCell>
      </root>
    </mxGraphModel>
  </diagram>
</mxfile>
